<?xml version="1.0" encoding="utf-8"?>
<!-- Generator: Adobe Illustrator 24.1.3, SVG Export Plug-In . SVG Version: 6.00 Build 0)  -->
<!DOCTYPE svg PUBLIC "-//W3C//DTD SVG 1.1//EN" "http://www.w3.org/Graphics/SVG/1.1/DTD/svg11.dtd" [
	<!ENTITY ns_extend "http://ns.adobe.com/Extensibility/1.0/">
	<!ENTITY ns_ai "http://ns.adobe.com/AdobeIllustrator/10.0/">
	<!ENTITY ns_graphs "http://ns.adobe.com/Graphs/1.0/">
	<!ENTITY ns_vars "http://ns.adobe.com/Variables/1.0/">
	<!ENTITY ns_imrep "http://ns.adobe.com/ImageReplacement/1.0/">
	<!ENTITY ns_sfw "http://ns.adobe.com/SaveForWeb/1.0/">
	<!ENTITY ns_custom "http://ns.adobe.com/GenericCustomNamespace/1.0/">
	<!ENTITY ns_adobe_xpath "http://ns.adobe.com/XPath/1.0/">
]>
<svg version="1.1" xmlns:x="&ns_extend;" xmlns:i="&ns_ai;" xmlns:graph="&ns_graphs;"
	 xmlns="http://www.w3.org/2000/svg" xmlns:xlink="http://www.w3.org/1999/xlink" x="0px" y="0px" width="1000px" height="425px"
	 viewBox="0 0 1000 425" enable-background="new 0 0 1000 425" xml:space="preserve">
<metadata>
	<sfw  xmlns="&ns_sfw;">
		<slices></slices>
		<sliceSourceBounds  bottomLeftOrigin="true" height="15788.915" width="9546.719" x="-5367.719" y="-7343"></sliceSourceBounds>
	</sfw>
</metadata>
<g id="FILL-BACKGROUND">
	<rect x="0" y="0" fill="#FFFFFF" width="1000" height="425"/>
</g>
<g id="N-DIMENSIONS">
</g>
<g id="N-TEXT">
</g>
<g id="AG-GUIDE">
</g>
<g id="AG-DIAGRAM">
	<g id="POLYLINE_976_">
		<g>
			<g>
				
					<line fill="none" stroke="#FF6B6B" stroke-width="3.25" stroke-linecap="round" stroke-linejoin="round" x1="81.392" y1="358.297" x2="83.392" y2="358.297"/>
				
					<line fill="none" stroke="#FF6B6B" stroke-width="3.25" stroke-linecap="round" stroke-linejoin="round" stroke-dasharray="4.0048,7.0084" x1="90.4" y1="358.297" x2="912.89" y2="358.297"/>
				
					<line fill="none" stroke="#FF6B6B" stroke-width="3.25" stroke-linecap="round" stroke-linejoin="round" x1="916.394" y1="358.297" x2="918.394" y2="358.297"/>
			</g>
		</g>
	</g>
</g>
<g id="AG-PEOPLE">
	<g id="POLYLINE_3061_">
		
			<path fill="none" stroke="#FF6B6B" stroke-width="2.75" stroke-linecap="round" stroke-linejoin="round" stroke-miterlimit="10" d="
			M351.965,354.583c-0.435,1.666-1.49,3.439-3.243,3.669c-2.138-0.009-8.647,0.216-10.616-0.122
			c-3.441-0.539-4.792-2.154-5.752-5.298c-3.038-11.94-2.759-24.682-5.383-36.717c-5.376-25.732-11.01-37.815-3.901-64.877"/>
	</g>
	<g id="POLYLINE_3060_">
		
			<path fill="none" stroke="#FF6B6B" stroke-width="2.75" stroke-linecap="round" stroke-linejoin="round" stroke-miterlimit="10" d="
			M365.852,336.97c1.005,3.039,2.161,6.092,3.761,8.872c1.874,2.782,2.857,6.144,2.544,9.502c-0.096,1.205-0.463,2.856-1.806,2.948
			c-4.568-0.137-11.698,0.388-16.132-0.486c-1.725-0.457-2.441-3.405-2.527-4.909c-0.047-4.593,0.936-9.377,1.678-13.902"/>
	</g>
	<g id="POLYLINE_3059_">
		
			<path fill="none" stroke="#FF6B6B" stroke-width="2.75" stroke-linecap="round" stroke-linejoin="round" stroke-miterlimit="10" d="
			M374.287,173.715c2.885,0.241,5.934,0.6,8.379,2.279c4.28,3.113,6.19,8.392,7.825,13.218c2.686,8.323,3.539,18.444,4.587,27.144
			c0.864,7.635,3.283,20.461,4.456,28.145c1.093,8.147,2.423,19.359,3.613,27.49c0.147,1.41,0.265,2.864,0.136,4.28
			c-0.199,1.957-0.715,3.978-0.909,5.939c-1.016,8.499-1.054,18.746-8.766,24.213c-3.39,2.439-5.537-0.425-6.74-3.418
			c-1.731-4.884-0.865-10.296,0.257-15.225c0.558-2.762,1.487-5.706,3.502-7.728c1.256-1.473,3.374-2.866,3.569-4.906
			c0.059-0.796-0.098-1.447-0.293-2.159c-0.466-1.666-4.197-11.561-4.851-13.397c-5.033-14.36-8.655-29.392-11.322-44.366"/>
	</g>
	<g id="POLYLINE_3058_">
		
			<path fill="none" stroke="#FF6B6B" stroke-width="2.75" stroke-linecap="round" stroke-linejoin="round" stroke-miterlimit="10" d="
			M319.629,205.816c-1.185-1.481-2.458-3.003-3.283-4.698c-1.508-2.908-2.622-6.629-4.713-9.169
			c-0.934-1.087-1.998-1.799-3.214-2.418c-3.222-1.551-8.664-3.525-11.99-4.923c-10.956-4.395-20.333-11.982-28.226-20.65
			c-2.237-2.437-1.005-5.781-0.343-8.583c2.402-9.631,7.165-18.512,13.05-26.454c5.822-7.446,6.134-7.982,8.588-17.174
			c1.38-4.856,3.997-5.416,8.586-4.791c3.55,0.582,8.815,1.168,10.73,4.597c1.264,2.664,0.603,5.959-0.452,8.569
			c-1.996,4.539-7.745,3.632-11.62,5.178c-1.6,0.641-2.182,2.186-2.798,3.605c-2.333,5.759-6.574,18.764-8.519,24.751
			c-0.18,0.776-0.564,1.801-0.22,2.516c0.995,1.174,4.331,2.493,5.604,3.353c2.492,1.319,4.961,3.288,7.45,4.612
			c3.32,1.825,7.516,1.296,11.155,1.643c5.567,0.481,10.865,2.628,15.822,5.106"/>
	</g>
	<g id="POLYLINE_3057_">
		
			<path fill="none" stroke="#FF6B6B" stroke-width="2.75" stroke-linecap="round" stroke-linejoin="round" stroke-miterlimit="10" d="
			M369.758,171.53c1.439-0.425,3.065,0.073,3.996,1.102c0.994,1.307,0.655,3,0.812,4.499c0.059,1.706,0.484,3.381,1.077,4.976
			c1.128,3.086,2.937,6.725,3.833,9.883c1.209,4.169,1.811,8.584,1.39,12.919c-0.181,2.483-1.206,5.012-2.149,7.298
			c-1.986,4.435-1.513,9.411-0.849,14.089c0.753,5.595,2.456,12.317,2.799,17.949c0.045,1.013,0.033,2.135-0.225,3.101
			c-0.211,0.914-0.875,1.556-1.629,1.863c-2.43,0.878-7.153,2.101-9.609,2.822c-13.244,3.69-23.021,5.742-36.789,2.935
			c-13.696-2.607-10.291-5.666-7.774-16.723c1.888-8.068,1.687-16.512-1.545-24.216c-0.814-2.15-2.231-4.218-3.034-6.364
			c-0.88-2.417-0.405-4.905,0.061-7.338c1.044-4.259,1.788-9.19,2.572-13.506c0.565-2.511,1.429-5.676,1.699-8.233
			c0.368-2.453,0.075-5.814,1.02-8.125c0.617-1.086,1.837-1.073,2.869-1.362"/>
	</g>
	<g id="POLYLINE_3056_">
		
			<path fill="none" stroke="#FF6B6B" stroke-width="2.75" stroke-linecap="round" stroke-linejoin="round" stroke-miterlimit="10" d="
			M358.638,166.272c3.17,1.58,6.913,3.085,10.105,4.597c2.006,0.933,2.404,2.704,2.687,4.656c0.525,3.781,0.839,7.77-0.256,11.478
			c-0.932,3.178-3.754,5.098-6.725,6.051c-3.44,1.169-7.123,1.66-10.727,2.019c-7.357,0.503-16.045,1.47-22.468-2.856
			c-2.228-1.565-4.244-3.794-4.768-6.538c-0.16-0.849-0.172-1.728-0.126-2.589c0.21-2.425,0.487-5.23,0.493-7.675
			c0.146-1.992-0.07-4.504,1.241-6.124c1.18-1.192,2.844-1.386,4.265-2.086c2.935-1.101,4.315-3.889,4.627-6.799"/>
	</g>
	<g id="POLYLINE_3055_">
		
			<path fill="none" stroke="#FF6B6B" stroke-width="2.75" stroke-linecap="round" stroke-linejoin="round" stroke-miterlimit="10" d="
			M347.459,120.317c1.675-2.453,1.125-5.374-1.744-6.288c-1.502-0.289-2.976,0.319-4.43-0.124c-1.461-0.347-3.15-0.93-4.607-0.456
			c-4.437,1.385-4.657,6.321-2.957,9.895"/>
	</g>
	<g id="POLYLINE_3054_">
		
			<path fill="none" stroke="#FF6B6B" stroke-width="2.75" stroke-linecap="round" stroke-linejoin="round" stroke-miterlimit="10" d="
			M362.635,143.852c0.189-1.296,0.511-2.891,0.359-4.182c-0.133-1.587-0.587-3.035-1.125-4.512
			c-1.933-4.898-4.819-9.775-9.272-12.754c-5.074-3.277-11.985-3.153-17.156-0.151c-3.597,2.057-5.632,5.871-6.043,9.92
			c-0.486,4.246,0.155,8.633,1.806,12.573"/>
	</g>
	<g id="POLYLINE_3053_">
		
			<path fill="none" stroke="#FF6B6B" stroke-width="2.75" stroke-linecap="round" stroke-linejoin="round" stroke-miterlimit="10" d="
			M362.68,144.254c-0.329-2.847-0.555-5.9-1.702-8.556c-2.7-6.186-7.653-8.122-13.914-6.102c-3.717,1.163-4.961,4.487-6.158,7.784
			c-0.287,0.737-0.626,1.584-1.016,2.259c-1.253,2.28-3.393,1.278-3.679,4.406c-0.272,1.862-0.129,4.34-0.156,6.231
			c-0.058,0.572,0.085,1.497-0.321,1.901c-0.996-0.011-1.746-4.347-2.306-5.276c-0.371-0.855-0.913-1.872-1.785-2.108
			c-1.321-0.268-2.125,0.747-1.607,1.883c0.439,1.191,1.154,2.404,1.555,3.607c0.598,1.451,0.896,3.52,2.034,4.631
			c0.416,0.341,0.921,0.368,1.308,0.591c0.847,0.613,0.88,1.905,1.207,2.781c0.341,1.151,0.862,2.249,1.484,3.275
			c2.282,3.742,5.815,6.775,9.996,8.171c2.175,0.727,4.699,1.14,6.916,0.47c4.015-1.183,5.664-7.601,7.073-11.137
			C363.512,153.767,363.461,149.738,362.68,144.254z"/>
	</g>
	<g id="POLYLINE_3052_">
		
			<path fill="none" stroke="#FF6B6B" stroke-width="2.75" stroke-linecap="round" stroke-linejoin="round" stroke-miterlimit="10" d="
			M352.794,258.259c-4.981,7.776-8.351,16.742-9.426,25.927c-0.688,7.514,0.908,15.109,2.305,22.461
			c1.533,7.487,5.105,23.053,6.715,30.498c0.323,1.381,1.106,2.399,2.547,2.306c1.91-0.012,3.864-0.672,5.737-0.924
			c2.834-0.359,5.509-0.688,6.639-3.649c0.825-1.91,1.164-3.966,1.473-6.006c0.935-8.991,2.468-19.224,2.072-28.236
			c-0.114-2.659-0.733-5.732-0.108-8.349c0.353-1.465,1.417-2.584,2.459-3.466c1.863-1.543,3.948-3.05,5.529-4.895
			c4.309-5.054,7.34-11.432,7.897-18.091c0.471-6.588-2.545-12.841-6.341-18.044"/>
	</g>
	<g id="POLYLINE_2849_">
		
			<path fill="none" stroke="#FF6B6B" stroke-width="2.75" stroke-linecap="round" stroke-linejoin="round" stroke-miterlimit="10" d="
			M197.273,321.826c1.363-11.967,1.956-24.263,1.587-36.307"/>
	</g>
	<g id="POLYLINE_2848_">
		
			<path fill="none" stroke="#FF6B6B" stroke-width="2.75" stroke-linecap="round" stroke-linejoin="round" stroke-miterlimit="10" d="
			M155.837,279.927c1.66,2.655,3.24,5.427,4.245,8.402c2.252,6.061,4.313,20.582,5.78,27.049c0.282,2.377,3.122,14.229,0.882,15.089
			c-1.105,0.478-2.198,0.209-3.298,0.077c-9.485-2.035-41.453-9.367-50.706-11.776c-1.241-0.299-14.392-3.925-15.346-4.003
			c-0.944-0.144-2.044-0.141-2.825,0.338c-1.995,1.294-1.641,5.634-1.724,7.761c0.152,7.124,0.022,14.694,3.076,21.295
			c0.944,1.913,2.23,4.666,4.488,5.106c1.171,0.108,2.119-0.543,2.946-1.179c1.077-0.804,2.096-2.268,3.453-2.499
			c2.595-0.272,6.652,1.92,9.099,2.669c14.513,5.033,31.222,6.806,46.347,9.309c6.662,0.974,13.505,0.965,20.174,0.061
			c1.578-0.248,3.256-0.52,4.711-1.182c0.997-0.452,1.605-1.131,2.389-1.781"/>
	</g>
	<g id="POLYLINE_2847_">
		
			<path fill="none" stroke="#FF6B6B" stroke-width="2.75" stroke-linecap="round" stroke-linejoin="round" stroke-miterlimit="10" d="
			M100.104,349.208c0.187,2.258,0.48,4.944,0.476,7.201c-0.027,1.428-1.557,1.845-2.645,1.875c-2.51,0.075-5.331-0.502-7.187-2.258
			c-2.633-3.001-3.346-7.052-4.29-10.802c-1.499-7.047-2.645-14.416-3.294-21.592c-0.13-2.051-0.307-4.187,0.04-6.224
			c0.74-3.55,8.064-1.958,10.601-1.545"/>
	</g>
	<g id="POLYLINE_2846_">
		
			<path fill="none" stroke="#FF6B6B" stroke-width="2.75" stroke-linecap="round" stroke-linejoin="round" stroke-miterlimit="10" d="
			M170.716,140.699c4.939-1.7,10.156-2.664,15.355-3.097c4.367-0.43,8.813,0.093,13.012,1.354c3.769,1.079,4.741,0.164,4.502-3.637
			c-0.552-5.749-4.021-11.484-9.54-13.634c-6.64-2.461-14.972-1.067-21.172,2.084"/>
	</g>
	<g id="POLYLINE_2845_">
		
			<path fill="none" stroke="#FF6B6B" stroke-width="2.75" stroke-linecap="round" stroke-linejoin="round" stroke-miterlimit="10" d="
			M155.72,143.247c-1.22-0.117-2.699-0.571-3.24-1.673c-0.482-1.027-0.272-2.282,0.356-3.092c0.72-0.863,1.822-1.057,2.784-1.124"/>
	</g>
	<g id="POLYLINE_2844_">
		
			<path fill="none" stroke="#FF6B6B" stroke-width="2.75" stroke-linecap="round" stroke-linejoin="round" stroke-miterlimit="10" d="
			M170.842,145.21c0.978,1.109,2.622,1.878,3.99,1.434c1.102-0.706,0.94-2.19,1.218-3.286c0.226-1.743,1.194-3.242,2.149-4.659"/>
	</g>
	<g id="POLYLINE_2843_">
		
			<path fill="none" stroke="#FF6B6B" stroke-width="2.75" stroke-linecap="round" stroke-linejoin="round" stroke-miterlimit="10" d="
			M172.194,161.26c2.828,3.721,6.864,6.475,11.266,7.997c1.987,0.647,4.204,1.203,6.281,0.746c2.283-0.491,2.707-2.909,3.757-4.592
			c1.154-1.843,3.025-3.297,3.975-5.234c1.604-3.237,1.041-7.463,1.682-10.923c0.266-1.5,1.009-2.926,1.552-4.336
			c0.651-1.764,0.971-3.714,1.289-5.563"/>
	</g>
	<g id="POLYLINE_2842_">
		
			<path fill="none" stroke="#FF6B6B" stroke-width="2.75" stroke-linecap="round" stroke-linejoin="round" stroke-miterlimit="10" d="
			M166.787,161.688c3.581,3.249,10.418,9.11,14.33,11.953c4.372,3.035,2.024-2.708,1.443-4.712"/>
	</g>
	<g id="POLYLINE_2841_">
		
			<path fill="none" stroke="#FF6B6B" stroke-width="2.75" stroke-linecap="round" stroke-linejoin="round" stroke-miterlimit="10" d="
			M197.739,246.903c0.783-2.565,1.76-5.475,2.133-8.106c0.375-2.365,0.391-4.829,0.341-7.221
			c-0.087-6.243-1.003-13.697,1.333-19.614c1.637-4.729,5.46-9.289,5.021-14.53c-0.707-6.326-7.813-12.905-12.317-17.085
			c-4.056-3.436-8.168-7.457-11.691-11.418"/>
	</g>
	<g id="POLYLINE_2840_">
		
			<path fill="none" stroke="#FF6B6B" stroke-width="2.75" stroke-linecap="round" stroke-linejoin="round" stroke-miterlimit="10" d="
			M184.114,337.424c-1.233,1.904-2.529,3.941-3.552,5.965c-0.769,1.467-1.563,3.313-0.898,4.9c0.998,2.371,4.514,3.708,6.657,4.886
			c4.23,2.03,8.642,3.967,13.287,4.783c1.212,0.208,2.465,0.341,3.696,0.34c3.032-0.082,14.332,0.171,17.165-0.173
			c1.509-0.228,3.863-0.319,4.535-1.884c0.536-1.225,0.612-2.463,0.536-3.745c-0.044-1.231-0.436-2.623-1.373-3.363
			c-0.292-0.263-0.608-0.396-0.864-0.517c-0.317-0.24-11.02-3.387-11.353-3.575"/>
	</g>
	<g id="POLYLINE_2839_">
		
			<path fill="none" stroke="#FF6B6B" stroke-width="2.75" stroke-linecap="round" stroke-linejoin="round" stroke-miterlimit="10" d="
			M153.165,155.274c-1.479,1.425-3.059,2.859-4.035,4.682c-2.237,3.948-3.583,8.369-4.554,12.783
			c-1.623,7.64-1.531,15.737,0.756,23.233c1.071,3.742,3.501,7.945,5.162,11.479c1.242,2.646,2.108,5.511,2.123,8.453
			c0.144,7.422-3.291,14.85-5.331,21.855c-0.379,1.572-0.977,4.025,1.51,3.232c2.515-0.761,5.453-2.276,8.031-2.786
			c10.075-2.151,20.511,0.481,29.91,4.176c6.487,2.599,14.758,6.23,21.387,8.344c9.294,3.15,25.844,7.296,35.279,10.228
			c5.784,1.945,12.325,4.395,15.219,10.187c2.636,5.213,1.797,11.393-1.335,16.201c-4.491,6.674-10.317,13.66-14.602,20.48
			c-7.046,10.083-16.305,26.337-24.585,35.274c-2.566,2.452-6.585,1.895-9.835,1.94c-5.02-0.156-10.164-0.38-14.993-1.869
			c-2.76-0.838-11.301-4.289-8.978-8.155c0.825-1.36,2.008-2.442,3.118-3.553c5.323-5.152,11.779-10.833,15.829-17.032
			c3.96-5.813,7.641-13.08,12.189-18.456c2.329-2.805,5.851-6.171,8.297-8.887c0.413-0.465,0.929-1.106,1.13-1.646
			c0.423-1.318-2.859-0.864-3.555-0.895c-12.33,1.192-25.314,1.108-37.696,0.676c-11.125-0.496-23.838-0.583-32.381-8.777
			c-3.586-3.396-6.175-7.849-7.265-12.672c-1.7-7.672-0.578-15.991,3.288-22.851"/>
	</g>
	<g id="POLYLINE_2838_">
		
			<path fill="none" stroke="#FF6B6B" stroke-width="2.75" stroke-linecap="round" stroke-linejoin="round" stroke-miterlimit="10" d="
			M158.435,175.228c-1.751,0.514-2.582-1.705-3.254-2.847c-0.937-1.898-1.931-3.861-2.628-5.858
			c-0.663-1.894-1.109-3.922-0.891-5.936c0.564-4.415,3.409-8.676,3.767-13.148c0.698-7.113-0.048-14.705,0.691-21.826
			c0.912-12.132,4.15-25.609,6.496-37.572c0.561-3.38,1.07-6.977-0.15-10.273c-1.096-3.325-5.36-10.539-2.19-13.366
			c1.528-1.314,3.501-2.521,5.156-3.651c1.786-1.126,4.527-2.512,5.965-0.244c0.916,1.313,1.323,2.831,1.742,4.345
			c0.578,2.502,1.547,6.278,1.908,8.804c0.835,4.847-2.48,6.582-3.076,10.857c-0.162,1.108-0.177,2.253-0.146,3.371
			c0.394,7.125,1.29,15.478,1.426,22.595c0.114,4.58,0.086,9.31-0.439,13.863c-0.402,3.933-1.59,9.407-1.988,13.342
			c-0.323,3.076,0.208,6.411-0.062,9.49c-0.36,4.558-1.865,8.973-3.466,13.227C165.698,164.311,162.057,173.424,158.435,175.228z"/>
	</g>
	<g id="POLYLINE_2837_">
		
			<path fill="none" stroke="#FF6B6B" stroke-width="2.75" stroke-linecap="round" stroke-linejoin="round" stroke-miterlimit="10" d="
			M814.63,333.1c-0.408,2.608-0.95,5.25-1.875,7.727c-0.435,1.195-1.094,2.304-1.432,3.518c-0.694,2.296-0.809,4.736-0.678,7.119
			c0.093,1.58,0.181,3.258,0.604,4.784c0.222,1.268,1.454,1.641,2.473,1.801c2.484,0.492,10.188,0.149,12.812,0.248
			c2.09-0.03,4.776-0.192,6.072-1.989c1.797-2.601,1.566-9.29,0.152-12.017c-0.991-2.88-1.015-5.946-1.185-8.95"/>
	</g>
	<g id="POLYLINE_2836_">
		
			<path fill="none" stroke="#FF6B6B" stroke-width="2.75" stroke-linecap="round" stroke-linejoin="round" stroke-miterlimit="10" d="
			M789.445,133.551c-0.185-2.667,0.382-5.337,1.057-7.904c0.678-2.763,1.978-4.399,4.716-5.141c2.758-0.773,7.436-1.419,10.286-1.84
			c3.009-0.361,5.239,0.277,5.779,3.513c0.463,2.552-0.171,5.391-1.656,7.483c-2.011,2.645-5.099,6.153-7.444,8.493"/>
	</g>
	<g id="POLYLINE_2835_">
		
			<path fill="none" stroke="#FF6B6B" stroke-width="2.75" stroke-linecap="round" stroke-linejoin="round" stroke-miterlimit="10" d="
			M842.125,147.778c-0.959,1.527-1.967,3.347-3.381,4.463c-1.786,1.779-8.765,4.687-7.339,7.621c1.7,3.076,7.293,5.314,10.315,7.119
			c4.399,2.246,8.929,4.894,13.938,5.345c2.437,0.196,5.092-0.363,7.522-0.49c2.198-0.112,4.594-0.225,6.731-0.755
			c2.41-0.569,4.751-1.498,6.991-2.545c1.686-0.862,6.918-3.277,6.8-5.296c-0.178-0.924-0.814-1.612-1.173-2.436
			c-1.183-2.162-2.427-5.043-3.959-6.96c-1.565-2.001-3.654-3.569-5.927-4.685"/>
	</g>
	<g id="POLYLINE_2834_">
		
			<path fill="none" stroke="#FF6B6B" stroke-width="2.75" stroke-linecap="round" stroke-linejoin="round" stroke-miterlimit="10" d="
			M843.409,147.484c-0.026,4.983,1.609,9.926,4.734,13.822c3.483,4.301,8.275,9.543,14.384,8.293
			c2.795-0.478,5.748-2.299,6.099-5.26c0.283-2.762,0.045-6.161,0.106-8.945"/>
	</g>
	<g id="POLYLINE_2833_">
		
			<path fill="none" stroke="#FF6B6B" stroke-width="2.75" stroke-linecap="round" stroke-linejoin="round" stroke-miterlimit="10" d="
			M842.557,115.935c-4.739-3.393-2.646-6.547-2.705-11.329c-0.077-2.676-1.502-5.397,1.45-7.023c3.193-1.872,9.813-3.032,12.4,0.211
			c1.585,2.103,1.979,4.778,3.455,6.916c2.055,3.151,4.088,4.53,3.172,8.651"/>
	</g>
	<g id="POLYLINE_2832_">
		
			<path fill="none" stroke="#FF6B6B" stroke-width="2.75" stroke-linecap="round" stroke-linejoin="round" stroke-miterlimit="10" d="
			M838.667,137.062c-1.126-3.731-1.24-7.708-0.795-11.561c0.483-4.432,2.371-8.706,6.514-10.732
			c4.239-2.138,9.301-2.882,13.969-1.993c4.404,0.942,8.037,4.174,10.255,7.995"/>
	</g>
	<g id="POLYLINE_2831_">
		
			<path fill="none" stroke="#FF6B6B" stroke-width="2.75" stroke-linecap="round" stroke-linejoin="round" stroke-miterlimit="10" d="
			M843.409,147.484c-0.659,0.171-1.46,0.451-2.075,0.207c-1.303-0.635-1.783-2.023-2.331-3.18c-0.735-1.961-2.024-5.64-0.433-7.363
			c2.287-1.85,2.817,3.316,4.207,3.948c1.476-0.608,0.463-4.431,0.444-5.711c-0.097-1.054-0.085-2.261,0.244-3.254
			c0.561-1.766,1.764-3.164,2.42-4.838c1.315-3.572-1.561-6.663,3.011-8.822c3.353-1.606,9.868-2.928,13.48-2.015
			c3.991,1.054,6.919,4.333,8.242,8.072c1.083,3.06,1.968,8.129,2.637,11.315c0.707,4.54,0.598,9.302-0.736,13.719
			c-1.725,6.137-7.46,9.05-13.527,8.164c-3.579-0.536-6.836-2.446-9.428-4.922"/>
	</g>
	<g id="POLYLINE_2830_">
		
			<path fill="none" stroke="#FF6B6B" stroke-width="2.75" stroke-linecap="round" stroke-linejoin="round" stroke-miterlimit="10" d="
			M879.654,204.674c-1.206-5.866-2.565-12.32-2.81-18.287c-0.282-5.467-0.337-11.709-1.976-16.951"/>
	</g>
	<g id="POLYLINE_2829_">
		
			<path fill="none" stroke="#FF6B6B" stroke-width="2.75" stroke-linecap="round" stroke-linejoin="round" stroke-miterlimit="10" d="
			M881.662,222.229c-1.181,5.818-2.022,12.956-2.731,18.862c-0.227,2.258-0.319,4.569-0.166,6.834
			c0.37,5.194,1.635,10.366,3.011,15.376c0.853,2.641,1.42,5.784,2.952,8.111c1.508,1.827,2.447-4.418,2.737-5.239
			c0.712-3.191,1.845-8.819,2.838-11.864c0.603-1.913,1.411-3.789,2.352-5.559c0.823-1.602,2.149-3.645,2.741-5.346
			c0.762-2.174,0.514-4.413,0.276-6.632"/>
	</g>
	<g id="POLYLINE_2828_">
		
			<path fill="none" stroke="#FF6B6B" stroke-width="2.75" stroke-linecap="round" stroke-linejoin="round" stroke-miterlimit="10" d="
			M893.317,206.056c2.229,1.371,3.862,3.349,5.185,5.54c1.608,2.627,2.984,5.47,3.626,8.498"/>
	</g>
	<g id="POLYLINE_2827_">
		
			<path fill="none" stroke="#FF6B6B" stroke-width="2.75" stroke-linecap="round" stroke-linejoin="round" stroke-miterlimit="10" d="
			M881.196,218.935c0.514,8.326,6.215,18.44,15.659,17.803c3.527-0.315,6.982-2.254,8.952-5.208
			c1.275-1.926,1.652-4.114,1.685-6.355c-0.422-10.487-4.556-24.798-6.393-35.181c-1.03-4.727-1.18-10.231-2.362-14.922
			c-1.755-6.725-8.96-9.793-15.176-11.094"/>
	</g>
	<g id="POLYLINE_2826_">
		
			<path fill="none" stroke="#FF6B6B" stroke-width="2.75" stroke-linecap="round" stroke-linejoin="round" stroke-miterlimit="10" d="
			M881.196,218.935c-2.886-2.312-3.092-5.907-2.685-9.281c0.277-2.277,0.833-4.553,1.835-6.623
			c4.869-9.383,11.804-1.152,13.883,5.32c1.284,3.818,0.612,7.795-2.298,10.669C888.43,222.588,884.675,222.105,881.196,218.935z"/>
	</g>
	<g id="POLYLINE_2825_">
		
			<path fill="none" stroke="#FF6B6B" stroke-width="2.75" stroke-linecap="round" stroke-linejoin="round" stroke-miterlimit="10" d="
			M827.841,246.914c10.258,6.311,20.486,8.849,32.48,7.275c6.418-0.831,13.09-2.059,18.471-5.875"/>
	</g>
	<g id="POLYLINE_2824_">
		
			<path fill="none" stroke="#FF6B6B" stroke-width="2.75" stroke-linecap="round" stroke-linejoin="round" stroke-miterlimit="10" d="
			M848.25,170.218c-1.016,5.248-3.518,11.212-4.916,16.367c-4.457,15.348-9.734,44.157-15.006,59.148
			c-0.637,1.483-1.312,3.835-3.176,3.886c-6.788-0.46-15.736-4.576-20.49-9.457c-1.606-1.634-2.035-3.549-1.577-5.675
			c2.393-12.954,3.921-27.76,7.457-40.442c0.416-1.239-0.158-1.401-1.18-1.36c-1.181,0.05-2.919,0.295-4.099,0.364
			c-3.059,0.247-9.227-0.135-12.36-0.204c-3.466-0.149-8.291,0.096-11.773,0.114c-2.374-0.04-5.06-0.136-7.127-1.356
			c-4.4-2.763-3.008-10.957-2.639-15.393c1.128-9.374,3.807-18.585,7.792-27.141c1.702-3.462,6.8-14.534,10.188-15.505
			c1.035-0.114,1.833,0.561,2.732,0.853c1.244,0.535,4.373,1.369,5.711,1.805c1.299,0.426,2.693,0.846,3.868,1.546
			c1.204,0.66,1.212,1.633,0.765,2.693c-3.08,8.712-7.786,19.215-10.742,27.932c-0.247,0.869-0.658,1.935-0.599,2.815
			c0.254,0.721,2.094-1.437,2.446-1.625c1.148-1.017,2.435-1.915,3.74-2.718c4.903-2.929,10.461-5.368,15.719-7.587
			c5.837-2.279,13.113-3.935,19.28-2.289"/>
	</g>
	<g id="POLYLINE_2823_">
		
			<path fill="none" stroke="#FF6B6B" stroke-width="2.75" stroke-linecap="round" stroke-linejoin="round" stroke-miterlimit="10" d="
			M846.397,308.758c-1.197,12.586-3.318,26.26-2.718,38.884c0.198,2.15,0.5,4.358,1.415,6.335c1.615,3.578,5.706,4.473,9.255,4.315
			c2.927-0.048,5.898-0.317,8.728-1.093c4.455-1.064,6.543-5.663,8.146-9.518c3.778-9.19,4.213-19.248,6.24-28.867
			c1.13-5.958,3.41-11.702,4.699-17.612c1.885-9.659,2.311-19.849,2.671-29.674"/>
	</g>
	<g id="POLYLINE_2822_">
		
			<path fill="none" stroke="#FF6B6B" stroke-width="2.75" stroke-linecap="round" stroke-linejoin="round" stroke-miterlimit="10" d="
			M814.237,246.573c-2.454,3.304-4.584,6.942-5.61,10.956c-1.761,7.211-1.415,14.976,0.728,22.068
			c0.716,2.262,1.763,4.432,3.138,6.368c1.273,1.879,3.063,3.734,4.24,5.676c1.278,1.87,0.567,4.046-0.069,5.949
			c-0.415,1.311-0.715,2.675-0.807,4.048c-0.323,4.507,0.437,9.839,0.139,14.346c-0.157,3.43-1.463,7.167-2.236,10.494
			c-0.806,3.714-0.62,7.041,3.653,7.999c3.424,0.777,7.368,1.02,10.871,1.207c2.283,0.08,5.03-0.414,6.319-2.445
			c1.423-1.945,2.226-5.283,3.075-7.529c1.081-3.063,2.488-6.103,3.995-8.98c1.852-3.513,4.001-7.028,6.303-10.264
			c1.784-2.533,4.316-5.601,5.875-8.268c2.102-3.364,3.035-7.323,2.95-11.271c0.083-4.29-1.009-10.18-1.544-14.463
			c-0.372-2.974-0.588-7.093-0.827-10.093"/>
	</g>
	<g id="POLYLINE_2821_">
		
			<path fill="none" stroke="#FF6B6B" stroke-width="2.75" stroke-linecap="round" stroke-linejoin="round" stroke-miterlimit="10" d="
			M637.294,318.644c-1.628-0.027-3.345-0.165-4.893-0.671c-1.279-0.416-2.244-1.226-3.531-1.527
			c-0.881-0.246-1.884-0.297-2.467,0.374c-1.647,1.748-2.484,3.92-3.456,6.052c-1.844,4.29-2.409,9.091-1.503,13.679
			c0.274,1.481,0.689,2.959,1.333,4.324c0.938,1.752,1.908,3.373,2.561,5.241c1.645,3.66,1.62,8.62,5.086,11.15
			c0.813,0.574,1.757,0.876,2.668,0.983c0.284,0.057,0.558,0.029,0.769,0.048c0.079,0,12.178,0,12.178,0
			c2.257-0.026,4.587-0.073,6.757-0.753c4.103-1.181,3.069-6.798,2.246-9.897c-0.732-2.896-2.885-4.933-4.316-7.424
			c-1.159-1.973-2.263-4.032-3.116-6.157c-0.875-2.22-1.442-4.578-1.606-6.96C645.805,321.087,643.209,318.731,637.294,318.644z"/>
	</g>
	<g id="POLYLINE_2820_">
		
			<path fill="none" stroke="#FF6B6B" stroke-width="2.75" stroke-linecap="round" stroke-linejoin="round" stroke-miterlimit="10" d="
			M640.938,319.116c0.128-12.476,4.787-22.697,11.057-33.217c2.936-5.015,7.103-10.272,9.854-15.391
			c4.322-7.821,4.868-17.65,0.685-25.644c-2.75-5.322-7.989-10.338-14.337-10.097c-3.082,0.126-6.15,1.4-8.3,3.632
			c-1.744,1.822-2.691,4.171-3.523,6.505c-0.687,2.063-1.587,4.768-2.499,6.713c-1.013,2.188-2.883,5.447-3.91,7.632
			c-1.551,3.175-2.472,6.639-2.847,10.148c-1.789,15.226,3.386,31.717,0.866,46.894"/>
	</g>
	<g id="POLYLINE_2819_">
		
			<path fill="none" stroke="#FF6B6B" stroke-width="2.75" stroke-linecap="round" stroke-linejoin="round" stroke-miterlimit="10" d="
			M663.409,267.133c3.795,1.491,7.797,2.775,11.91,2.808c2.169-0.041,4.325-0.534,6.505-0.429c2.595,0.029,5.231,0.354,7.784,0.816
			c1.824,0.358,3.707,0.707,5.573,0.61c2.05-0.039,4.313-0.919,5.09-2.876c2.139-4.6,3.883-10.208,5.524-15.032
			c2.693-8.49,5.548-17.373,7.094-26.144c0.27-1.773,0.501-3.593,0.371-5.388c-0.149-1.624-0.735-3.166-1.264-4.692
			c-2.927-7.706-6.736-15.234-11.08-22.238"/>
	</g>
	<g id="POLYLINE_2818_">
		
			<path fill="none" stroke="#FF6B6B" stroke-width="2.75" stroke-linecap="round" stroke-linejoin="round" stroke-miterlimit="10" d="
			M645.455,298.511c3.301,4.908,6.973,9.845,12.076,13.002c6.874,4.952,14.134,10.077,19.76,16.464
			c6.372,7.381,11.522,16.209,17.782,23.694c0.872,1.052,1.841,2.047,2.904,2.907c4.021,3.447,9.998,4.123,14.62,1.534
			c5.504-3.082,8.869-10.432,9.587-16.503c0.826-7.553-2.247-14.984-6.497-21.086c-2.325-3.341-6.408-8.844-8.417-12.321
			c-4.675-10.355-9.842-24.635-13.973-35.3"/>
	</g>
	<g id="POLYLINE_2817_">
		
			<path fill="none" stroke="#FF6B6B" stroke-width="2.75" stroke-linecap="round" stroke-linejoin="round" stroke-miterlimit="10" d="
			M668.481,319.711c-1.947,1.253-3.912,2.608-5.371,4.43c-1.202,1.485-1.474,2.943-0.721,4.626c0.784,2.093,2.004,4.016,3.299,5.828
			c0.812,1.1,1.688,2.206,2.322,3.421c1.54,2.846,2.397,6.027,2.939,9.203c0.374,2.3,0.53,4.683,1.416,6.865
			c0.702,1.842,2.009,3.563,3.922,4.038c1.991,0.371,11.714,0.156,13.732,0.114c2.939-0.233,5.75-1.648,7.631-3.928"/>
	</g>
	<g id="POLYLINE_2816_">
		
			<path fill="none" stroke="#FF6B6B" stroke-width="2.75" stroke-linecap="round" stroke-linejoin="round" stroke-miterlimit="10" d="
			M649.74,234.807c3.429-9.648,5.441-20.659,7.201-30.731c0.225-2.06,0.458-4.282-0.066-6.296c-1.064-3.788-6.097-0.328-7.999,0.939
			c-2.336,1.657-4.434,3.659-6.239,5.881c-2.72,3.347-4.832,7.179-6.663,11.07c-5.109,10.858-10.239,27.673-15.05,38.715
			c-1.688,3.996-4.554,8.449-6.1,12.506c-2.159,5.986-2.602,13.221-3.751,19.46c-0.988,6.136-2.677,12.253-4.662,18.138
			c-1.163,3.739-4.78,13.175-5.444,16.957c-0.633,2.936,0.181,5.354,1.917,7.748c1.939,2.701,4.323,5.135,7.061,7.029
			c2.561,1.783,5.285,2.428,7.061-0.635c2.673-4.752,2.953-10.49,2.528-15.816c-0.383-4.939-1.847-10.543-1.348-15.506
			c0.262-2.894,1.104-5.726,2.055-8.461c1.928-5.31,4.166-10.828,6.584-15.932"/>
	</g>
	<g id="POLYLINE_2815_">
		
			<path fill="none" stroke="#FF6B6B" stroke-width="2.75" stroke-linecap="round" stroke-linejoin="round" stroke-miterlimit="10" d="
			M692.835,172.507c-5.552-2.325-7.303,1.488-10.95,4.56c-2.248,1.927-6.069,1.639-6.732,5.032
			c-0.463,1.825-0.392,3.749-0.284,5.614c0.177,2.398,0.405,4.853,1.209,7.135c1.302,3.702,4.128,6.718,7.36,8.859
			c4.865,3.287,10.374,2.894,14.203-1.685c1.731-2.138,2.622-4.815,3.274-7.453c0.72-2.961,1.189-6.096,1.548-9.122
			c0.225-1.898,0.587-4.125-0.586-5.751c-0.895-1.405-2.139-2.56-3.398-3.635C696.769,174.641,694.897,173.36,692.835,172.507z"/>
	</g>
	<g id="POLYLINE_2814_">
		
			<path fill="none" stroke="#FF6B6B" stroke-width="2.75" stroke-linecap="round" stroke-linejoin="round" stroke-miterlimit="10" d="
			M654.198,196.119c2.381-3.278,6.336-4.448,10.054-5.461c4.29-1.099,4.27-0.613,5.521,3.295c0.896,2.332,2.413,4.773,4.569,6.026
			c1.712,0.945,3.585,0.919,5.419,0.673"/>
	</g>
	<g id="POLYLINE_2813_">
		
			<path fill="none" stroke="#FF6B6B" stroke-width="2.75" stroke-linecap="round" stroke-linejoin="round" stroke-miterlimit="10" d="
			M672.886,178.328c-0.895,1.567-1.412,3.392-1.139,5.162c0.18,1.611,0.559,3.259,1.18,4.754c0.443,0.997,0.891,1.889,2.006,1.312"
			/>
	</g>
	<g id="POLYLINE_2812_">
		
			<path fill="none" stroke="#FF6B6B" stroke-width="2.75" stroke-linecap="round" stroke-linejoin="round" stroke-miterlimit="10" d="
			M668.238,190.455c1.651-0.485,3.409-1.216,4.58-2.474"/>
	</g>
	<g id="POLYLINE_2811_">
		
			<path fill="none" stroke="#FF6B6B" stroke-width="2.75" stroke-linecap="round" stroke-linejoin="round" stroke-miterlimit="10" d="
			M687.323,144.715c3.533-0.664,7.225-0.553,10.756,0.07c2.425,0.401,3.187,1.422,3.687,3.656c0.524,2.28,0.646,4.659,0.46,6.988
			c-0.271,3.721-1.797,7.073-5.5,8.319c-2.433,0.902-5.075,1.156-7.646,1.355c-2.297,0.138-4.706,0.338-6.982-0.072
			c-5.243-0.727-4.819-6.384-3.737-10.277C679.662,150.431,682.573,145.589,687.323,144.715z"/>
	</g>
	<g id="POLYLINE_2810_">
		
			<path fill="none" stroke="#FF6B6B" stroke-width="2.75" stroke-linecap="round" stroke-linejoin="round" stroke-miterlimit="10" d="
			M674.848,183.993c-1.264-2.309-2.099-4.875-2.11-7.524c-0.037-6.146,2.447-11.997,4.953-17.499"/>
	</g>
	<g id="POLYLINE_2800_">
		
			<path fill="none" stroke="#FF6B6B" stroke-width="2.75" stroke-linecap="round" stroke-linejoin="round" stroke-miterlimit="10" d="
			M702.518,184.971c1.984-3.553,2.845-7.62,3.485-11.603c0.768-5.155,0.504-11.74-4.36-14.821"/>
	</g>
	<g id="POLYLINE_2799_">
		
			<path fill="none" stroke="#FF6B6B" stroke-width="2.75" stroke-linecap="round" stroke-linejoin="round" stroke-miterlimit="10" d="
			M711.796,216.265c-0.177-6.884,0.633-13.893,2.421-20.544c1.514-4.537,4.126-8.941,5.435-13.556
			c2.09-6.954,3.267-14.258,3.707-21.501c0.263-3.865-0.094-8.553,0.316-12.406c0.218-1.778,0.978-3.903,1.401-5.65
			c0.902-3.805,1.369-7.989,1.821-11.878c1.205-9.746,1.521-23.557,2.602-33.364c0.206-1.416,0.501-2.841,0.982-4.191
			c2.324-5.555,4.432-11.743,2.94-17.795c-0.488-1.915-1.181-3.861-2.185-5.562c-1.168-2.013-2.976-2.181-4.898-1.302
			c-2.974,1.344-8.173,5.205-8.021,8.771c0.194,2.425,1.83,4.377,2.781,6.514c1.233,2.606,1.868,5.54,1.522,8.42
			c-0.209,1.883-0.792,4.155-1.209,6.018c-0.951,4.215-2.078,11.729-3.025,15.944c-1.037,5.15-3.256,10.77-4.964,15.745
			c-3.029,8.901-5.357,28.119-7.157,37.511"/>
	</g>
	<g id="POLYLINE_2798_">
		
			<path fill="none" stroke="#FF6B6B" stroke-width="2.75" stroke-linecap="round" stroke-linejoin="round" stroke-miterlimit="10" d="
			M466.785,145.481c0.692,2.021,2.325,4.237,3.332,6.111c1.332,2.333,2.451,4.876,2.611,7.591c0.294,4.212-1.22,8.379-3.484,11.88
			c-2.194,3.376-5.692,6.465-9.671,3.73c-10.159-7.101-7.352-29.172-6.159-40.126c0.359-2.499,0.966-4.991,2.018-7.293
			c3.49-7.74,9.08-16.008,10.928-24.348c0.566-2.765-0.563-5.644-0.726-8.378c-0.112-2.798,0.037-6.923,2.224-8.883
			c1.997-1.478,4.525-1.286,6.857-1.529c2.001-0.089,4.064-0.107,6.055,0.128c1.029,0.121,2.247,0.338,3.109,0.881
			c2.661,1.731,0.763,8.385-0.442,10.695c-1.341,2.722-3.711,5.19-5.471,7.644c-1.464,2.043-2.679,4.28-3.611,6.613
			c-3.048,7.86-3.412,16.942-5.428,25.082c-0.449,1.923-0.993,4.093-1.572,5.977C466.942,142.556,466.279,144.154,466.785,145.481z"
			/>
	</g>
	<g id="POLYLINE_2797_">
		
			<path fill="none" stroke="#FF6B6B" stroke-width="2.75" stroke-linecap="round" stroke-linejoin="round" stroke-miterlimit="10" d="
			M469.274,150.144c2.016,0.411,4.345,0.84,6.284,1.456c1.085,0.337,2.344,0.887,3.444,1.159c1.611,0.446,3.395,0.076,5.002,0.379
			c2.493,0.473,3.731,3.22,5.258,4.922c0.94,1.163,2.001,2.246,3.14,3.214c3.414,2.84,7.458,5.24,11.915,5.865
			c4.636,0.734,10.611-2.566,9.463-7.83c-0.226-1.677-1.707-2.515-2.514-3.767c-0.863-1.566-1.142-3.289-1.134-5.035"/>
	</g>
	<g id="POLYLINE_2796_">
		
			<path fill="none" stroke="#FF6B6B" stroke-width="2.75" stroke-linecap="round" stroke-linejoin="round" stroke-miterlimit="10" d="
			M486.691,141.856c-0.8-0.009-1.687-0.007-2.25-0.506c-1.308-1.167-1.937-2.644-2.668-4.157c-0.553-1.386-1.359-2.999-1.227-4.492
			c0.196-0.889,1.107-1.421,1.867-1.395c1.797-0.173,3.439,5.589,4.402,2.373c0.523-1.906,0.178-4.428,0.191-6.377
			c-0.018-2.456,0.173-4.949,0.837-7.321c0.61-2.273,1.876-4.578,3.728-6.002c3.96-3.102,9.808-3.737,14.207-1.217
			c10.357,6.205,8.26,21.401,6.639,31.563c-0.395,2.31-0.992,4.952-2.694,6.632c-5.045,4.643-13.669,2-18.29-2.055"/>
	</g>
	<g id="POLYLINE_2795_">
		
			<path fill="none" stroke="#FF6B6B" stroke-width="2.75" stroke-linecap="round" stroke-linejoin="round" stroke-miterlimit="10" d="
			M486.644,154.762c1.918-4.026,1.567-8.807,0.048-12.906"/>
	</g>
	<g id="POLYLINE_2794_">
		
			<path fill="none" stroke="#FF6B6B" stroke-width="2.75" stroke-linecap="round" stroke-linejoin="round" stroke-miterlimit="10" d="
			M482.311,131.304c-1.199-3.725-1.273-7.737-0.213-11.504c0.749-2.749,1.804-5.593,3.743-7.728
			c1.485-1.619,3.538-2.186,5.343-3.256c1.759-1.126,3.327-3.048,5.48-3.285c3.645-0.374,7.405,1.318,10.364,3.312
			c6.01,4.134,7.635,12.275,6.615,19.12"/>
	</g>
	<g id="POLYLINE_2793_">
		
			<path fill="none" stroke="#FF6B6B" stroke-width="2.75" stroke-linecap="round" stroke-linejoin="round" stroke-miterlimit="10" d="
			M483.591,140.441c-1.779,9.364-7.995,1.077-10.651,10.464"/>
	</g>
	<g id="POLYLINE_2792_">
		
			<path fill="none" stroke="#FF6B6B" stroke-width="2.75" stroke-linecap="round" stroke-linejoin="round" stroke-miterlimit="10" d="
			M532.317,206.784c3.869,0.875,7.98-0.109,11.535-1.707c1.646-0.766,3.63-2.031,3.429-4.033
			c-0.291-5.155-0.813-10.445-2.024-15.469c-1.71-6.668-4.349-15.78-8.826-21.025c-1.208-1.32-2.457-2.202-3.985-2.979
			c-6.093-2.647-15.298-5.07-21.636-6.992"/>
	</g>
	<g id="POLYLINE_2791_">
		
			<path fill="none" stroke="#FF6B6B" stroke-width="2.75" stroke-linecap="round" stroke-linejoin="round" stroke-miterlimit="10" d="
			M522.997,244.601c-14.392,3.202-29.496,4.302-44.105,2.003c-3.355-0.707-8.308-1.537-9.643-5.142
			c-0.442-1.246-0.492-2.439-0.552-3.719c-0.192-8.16,1.221-19.192,0.799-27.337c-0.211-5.338-1.166-10.823-4.18-15.341
			c-1.623-2.592-4.019-5.511-5.505-8.183c-2.655-4.759-3.307-10.324-3.673-15.678"/>
	</g>
	<g id="POLYLINE_2790_">
		
			<path fill="none" stroke="#FF6B6B" stroke-width="2.75" stroke-linecap="round" stroke-linejoin="round" stroke-miterlimit="10" d="
			M528.873,175.304c4.344,9.487,5.896,20.386,3.643,30.625c-2.019,8.678-5.163,12.518-0.729,21.43"/>
	</g>
	<g id="POLYLINE_2789_">
		
			<path fill="none" stroke="#FF6B6B" stroke-width="2.75" stroke-linecap="round" stroke-linejoin="round" stroke-miterlimit="10" d="
			M503.533,251.26c0.161,14.267,2.218,28.66,6.736,42.216c1.59,4.817,4.424,10.602,5.9,15.455c1.094,3.534,1.715,7.229,1.987,10.915
			c0.179,2.678,0.229,5.416-0.205,8.073c-0.189,1.834-1.818,4.029,0.627,4.94c1.683,0.701,3.454,0.919,5.239,1.152
			c2.244,0.236,4.577,0.41,6.833,0.306c1.624-0.016,2.41-1.061,2.851-2.417c0.491-1.366,0.783-2.853,1.06-4.278
			c1.986-13.055,5.735-26.547,6.701-39.739c1.046-10.623,1.052-21.46-0.93-31.976c-0.799-4.192-1.484-8.558-3.14-12.512"/>
	</g>
	<g id="POLYLINE_2788_">
		
			<path fill="none" stroke="#FF6B6B" stroke-width="2.75" stroke-linecap="round" stroke-linejoin="round" stroke-miterlimit="10" d="
			M518.419,332.785c-0.88,2.373-1.605,4.847-1.805,7.38c-0.161,1.311,0.104,3.113,0.236,4.433c0.312,2.399,0.777,6.941,1.293,9.316
			c0.301,1.237,0.919,2.614,1.863,3.404c0.661,0.567,1.382,0.83,2.144,0.936c0.227,0.039,0.458,0.035,0.627,0.043
			c0.065,0,9.978,0,9.978,0c2.231-0.082,5.491,0.051,7.196-1.517c1.809-2.164,1.127-7.94,0.413-10.513
			c-0.368-1.496-1.29-2.514-2.075-3.71c-1.878-3.056-3.576-6.546-5.174-9.761"/>
	</g>
	<g id="POLYLINE_2787_">
		
			<path fill="none" stroke="#FF6B6B" stroke-width="2.75" stroke-linecap="round" stroke-linejoin="round" stroke-miterlimit="10" d="
			M471.88,244.404c-1.926,19.082-4.23,42.086,2.113,60.422c0.846,2.409,2.08,4.709,3.079,7.052c1.28,2.996,2.362,6.123,3.079,9.303
			c0.729,2.966,0.848,6.079,1.12,9.108c0.758,6.717,1.883,13.627,3.73,20.138c1.036,3.109,2.689,7,6.175,7.768
			c1.998,0.182,12.257,0.189,14.187-0.029c1.955-0.272,3.747-1.409,4.682-3.062c1.096-1.946,1.372-4.129,1.782-6.277
			c1.269-7.781,0.092-15.711-1.474-23.361c-1.447-10.135-0.414-20.682,0.315-30.85"/>
	</g>
	<g id="POLYLINE_2786_">
		
			<path fill="none" stroke="#FF6B6B" stroke-width="2.75" stroke-linecap="round" stroke-linejoin="round" stroke-miterlimit="10" d="
			M532.317,206.784c-0.097,3.235-0.248,6.61,0.32,9.802c0.539,2.925,1.724,6.355,0.109,9.103c-1.6,2.868-3.63,5.601-4.985,8.607
			c-2.174,4.163-3.986,9.775-6.768,13.581c-1.312,1.786-3.167,2.809-4.99,3.875c-4.204,2.269-4.012,5.787-3.646,9.961
			c0.258,1.279-0.096,3.747,1.552,4.116c3.077,0.88,10.878,0.067,14.125,0.221c5.442-0.088,11.13-0.789,7.575-7.618
			c-0.735-1.298-1.947-2.765-2.829-3.978c-0.878-1.131-1.682-2.65-0.943-3.97c4.255-7.079,11.675-12.868,14.854-20.625
			c0.553-1.391,0.872-2.875,0.964-4.368c0.012-5.87-0.71-16.205-1.327-22.012"/>
	</g>
</g>
<g id="AG-OUTLINE">
	<g id="POLYLINE">
		
			<path fill="none" stroke="#FF6B6B" stroke-width="3.5" stroke-linecap="round" stroke-linejoin="round" stroke-miterlimit="10" d="
			M198.86,285.519c0.369,12.045-0.224,24.339-1.587,36.307c5.993-6.076,10.137-14.493,14.877-21.511
			c2.671-4.056,6.581-8.04,9.988-11.515c0.798-0.844,1.702-1.754,2.366-2.703c0.963-1.281-0.045-1.54-1.108-1.58
			c-1.833-0.142-6.344,0.408-8.231,0.504C209.907,285.431,204.144,285.519,198.86,285.519z"/>
	</g>
	<g id="POLYLINE_1_">
		
			<path fill="none" stroke="#FF6B6B" stroke-width="3.5" stroke-linecap="round" stroke-linejoin="round" stroke-miterlimit="10" d="
			M100.104,349.208c0.187,2.258,0.48,4.944,0.476,7.201c-0.027,1.428-1.557,1.845-2.645,1.875c-2.51,0.075-5.331-0.502-7.187-2.258
			c-2.633-3.001-3.346-7.052-4.29-10.802c-1.499-7.047-2.645-14.416-3.294-21.592c-0.13-2.051-0.307-4.187,0.04-6.224
			c0.74-3.55,8.064-1.958,10.601-1.545c0.862-1.35,2.513-1.279,3.848-1.056c17.471,4.77,48.384,12.023,66.313,15.814
			c1.298,0.184,3.314,0.343,3.532-1.294c0.278-1.709-0.015-3.404-0.185-5.1c-1.262-8.719-4.116-23.119-6.024-31.767
			c-1.01-4.48-2.948-8.697-5.452-12.534c-3.598-2.125-6.665-5.147-8.844-8.713c-5.467-8.982-4.798-21.274,0.255-30.295
			c-1.3-1.518,2.357-9.634,2.844-11.69c1.96-6.168,3.77-13.041,1.405-19.346c-1.353-3.745-3.935-7.831-5.344-11.552
			c-1.407-3.632-2.204-7.515-2.525-11.392c-0.584-7.013,0.486-14.126,2.759-20.769c1.203-3.384,2.617-6.868,5.23-9.42
			c0.361-0.486,1.209-1.062,1.548-1.475c0.278-0.647,0.856-2.251,1.103-2.921c1.061-2.906,1.386-6.031,1.451-9.106
			c-2.474-0.194-4.22-1.685-3.236-4.176c0.534-1.287,1.969-1.656,3.136-1.714c0.227-4.892,0.197-10.121,0.806-15.029
			c1.1-10.871,4.082-23.518,6.19-34.287c0.35-2.088,0.658-4.243,0.592-6.364c-0.054-3.917-2.529-7.387-3.506-11.084
			c-0.483-1.806-1.114-4.187,0.167-5.752c0.744-0.936,1.822-1.489,2.737-2.173c1.25-0.818,2.833-2.056,4.187-2.686
			c2.925-1.528,4.479-0.503,5.558,2.367c1.064,2.865,1.801,6.982,2.481,9.975c1.072,5.235-0.617,6.006-2.41,10.31
			c-0.553,1.573-0.635,3.272-0.606,4.926c0.66,11.892,2.28,24.314,1.057,36.207c6.076-3.069,13.736-4.38,20.337-2.387
			c5.653,1.776,9.394,7.285,10.261,12.983c0.183,1.578,0.572,4.571-1.421,4.982c-0.423,1.712-0.625,3.598-1.239,5.279
			c-0.453,1.3-1.165,2.609-1.502,3.948c-0.848,3.456-0.215,7.714-1.583,11.055c-0.76,1.843-2.171,3.144-3.397,4.627
			c-1.341,1.449-1.71,3.586-3.063,4.958c-2.223,1.895-6.276,0.596-8.709-0.283c3.52,3.959,7.636,7.977,11.691,11.418
			c4.505,4.183,11.606,10.753,12.317,17.085c0.438,5.244-3.383,9.799-5.021,14.53c-2.335,5.901-1.422,13.395-1.333,19.614
			c0.05,2.39,0.034,4.855-0.341,7.221c-0.371,2.625-1.353,5.569-2.133,8.105c15.269,6.544,35.206,10.089,50.752,15.93
			c3.781,1.616,7.598,3.857,9.701,7.515c2.699,4.586,2.596,10.497,0.123,15.156c-0.988,1.956-2.284,3.807-3.584,5.569
			c-8.399,10.481-18.546,26.882-26.098,38.113c-3.224,4.606-6.508,9.579-10.327,13.712c-1.693,1.815-4.061,2.048-6.356,2.142
			c0.484,0.205,12.009,3.599,12.035,3.951c1.13,0.812,1.452,2.103,1.544,3.336c0.094,1.546,0.046,4.072-1.418,4.909
			c-2.41,1.121-5.12,0.98-7.711,1.062c-2.47-0.08-14.173,0.233-16.401-0.275c-3.627-0.584-7.125-1.871-10.471-3.359
			c-0.904,0.809-1.906,1.703-3.031,2.049c-2.415,0.819-5.035,1.065-7.563,1.308c-5.539,0.466-11.179,0.364-16.68-0.454
			c-8.851-1.36-20.933-3.166-29.684-4.92c-4.464-0.909-9.167-1.949-13.511-3.313c-2.913-0.861-7.06-2.687-9.986-3.531
			c-0.981-0.266-2.18-0.436-3.052,0.058C104.074,347.002,102.607,349.698,100.104,349.208z"/>
	</g>
	<g id="POLYLINE_60_">
		
			<path fill="none" stroke="#FF6B6B" stroke-width="3.5" stroke-linecap="round" stroke-linejoin="round" stroke-miterlimit="10" d="
			M319.629,205.816c-1.185-1.481-2.458-3.003-3.283-4.698c-1.508-2.908-2.622-6.629-4.713-9.169
			c-0.934-1.087-1.998-1.799-3.214-2.418c-3.222-1.551-8.664-3.525-11.99-4.923c-10.956-4.395-20.333-11.982-28.226-20.65
			c-2.237-2.437-1.005-5.781-0.343-8.583c2.402-9.631,7.165-18.512,13.05-26.454c5.822-7.446,6.134-7.982,8.588-17.174
			c1.38-4.856,3.997-5.416,8.586-4.791c3.55,0.582,8.815,1.168,10.73,4.597c1.264,2.664,0.603,5.959-0.452,8.569
			c-1.996,4.539-7.745,3.632-11.62,5.178c-1.6,0.641-2.182,2.186-2.798,3.605c-2.333,5.759-6.574,18.764-8.519,24.751
			c-0.18,0.776-0.564,1.801-0.22,2.516c0.995,1.174,4.331,2.493,5.604,3.353c2.492,1.319,4.961,3.288,7.45,4.612
			c3.32,1.825,7.516,1.296,11.155,1.643c5.567,0.481,10.865,2.628,15.822,5.106c0.361-1.285,1.628-1.458,2.688-1.712
			c0.589-0.098,1.046-0.681,1.547-0.82c0.813-0.364,1.916-0.726,2.732-1.083c3.044-1.112,4.454-3.848,4.783-6.868
			c-0.55-1.026-0.936-2.398-1.244-3.527c-0.453-2.112-1.891-1.117-2.671-2.654c-0.682-1.248-1.045-2.821-1.551-4.137
			c-0.421-1.267-1.3-2.588-1.609-3.878c-0.233-0.866,0.569-1.438,1.242-1.458c-0.04-0.396-0.333-0.85-0.442-1.258
			c-2.18-6.38-2.589-15.332,3.055-20.049c-1.799-3.702-1.488-8.661,2.952-10.005c1.585-0.458,3.061,0.128,4.566,0.468
			c1.434,0.433,2.977-0.147,4.377,0.112c1.391,0.34,2.436,1.545,2.702,2.817c0.234,1.246-0.292,2.51-0.906,3.483
			c4.832,0.902,8.631,4.427,11.183,8.468c2.035,3.246,3.835,6.862,4.335,10.695c0.173,1.436-0.12,2.966-0.343,4.372
			c0.242,2.254,0.666,5.118,0.568,7.377c-0.242,5.277-2.334,10.322-4.565,15.043c2.731,1.292,6.039,2.844,8.84,3.977
			c0.764,0.345,1.641,0.769,2.28,1.282c1.385-0.427,2.954,0.058,3.898,0.991c0.302,0.276,0.469,0.702,0.57,0.983
			c-0.1,0.214,1.176,0.344,1.258,0.32c5.072,0.412,8.42,2.066,11.099,6.471c6.84,11.655,7.067,26.252,8.91,39.318
			c0.966,7.329,3.412,20.059,4.398,27.401c0.865,7.971,2.572,18.995,3.42,26.927c0.17,2.072-0.287,4.167-0.648,6.196
			c-1.279,7.94-0.7,17.192-6.228,23.67c-1.513,1.714-4.14,4.445-6.57,3.233c-5.462-3.695-4.095-13.735-2.738-19.259
			c0.567-2.848,1.552-5.85,3.662-7.901c1.035-1.147,2.515-2.309,3.155-3.711c0.634-1.545,0.003-3.044-0.463-4.497
			c-7.054-18.104-12.499-37.305-15.75-56.446c-1.046,4.865-0.015,9.981,0.74,14.824c0.757,5.21,2.573,11.427,2.109,16.656
			c-0.046,0.286-0.124,0.648-0.207,0.872c-0.121,0.502,0.717,1.193,0.933,1.666c0.873,1.3,1.719,2.7,2.434,4.093
			c2.143,4.126,3.368,8.841,2.803,13.5c-0.855,6.571-3.939,12.861-8.401,17.737c-1.242,1.316-2.848,2.572-4.273,3.699
			c-1.549,1.199-3.03,2.706-3.258,4.658c-0.394,2.697,0.208,5.774,0.287,8.484c0.278,6.523-0.74,14.313-1.37,20.843
			c-0.601,4.272-0.563,10.996-3.327,14.384c-0.631,0.455,0.074,1.261,0.152,1.806c0.455,1.293,0.986,2.687,1.535,3.943
			c0.808,2.03,2.061,3.858,3.038,5.799c0.715,1.549,1.134,3.234,1.246,4.935c0.026,1.638,0.242,4.227-1.36,5.067
			c-4.009,0.118-11.059,0.262-15.014-0.112c-2.629-0.157-3.122-1.209-3.832-3.495c-0.435,1.666-1.49,3.439-3.243,3.669
			c-2.138-0.009-8.647,0.216-10.616-0.122c-3.441-0.539-4.792-2.154-5.752-5.298c-3.038-11.94-2.759-24.682-5.383-36.717
			c-5.376-25.732-11.01-37.815-3.901-64.877c-2.137-2.705,1.102-9.64,1.571-12.996c1.852-7.922,1.702-16.252-1.397-23.847
			C322.254,211.514,320.009,208.871,319.629,205.816z"/>
	</g>
	<g id="POLYLINE_70_">
		
			<path fill="none" stroke="#FF6B6B" stroke-width="3.5" stroke-linecap="round" stroke-linejoin="round" stroke-miterlimit="10" d="
			M814.237,246.573c-3.658-1.766-11.916-6.048-11.307-10.818c2.337-13.519,4.061-28.756,7.681-41.986
			c0.379-1.174-0.74-1.114-1.474-1.076c-1.074,0.064-2.802,0.292-3.875,0.354c-3.027,0.232-9.25-0.124-12.36-0.204
			c-4.069-0.192-9.223,0.213-13.294,0.075c-2.711-0.118-6.052-0.638-7.438-3.21c-2.654-4.774-0.593-15.523,0.409-20.897
			c1.94-9.457,5.566-18.543,10.237-26.974c1.315-2.19,4.208-7.828,6.628-8.287c-0.185-2.667,0.382-5.337,1.057-7.904
			c0.678-2.763,1.978-4.399,4.716-5.141c2.758-0.773,7.436-1.419,10.286-1.84c3.009-0.361,5.239,0.277,5.779,3.513
			c0.463,2.552-0.171,5.391-1.656,7.483c-2.011,2.645-5.099,6.153-7.444,8.493c0.642,0.534,0.58,1.312,0.361,1.939
			c-2.545,7.189-6.703,17.057-9.412,24.174c-0.193,0.7-3.083,7.659-1.666,7.056c1.474-1.076,2.783-2.53,4.322-3.501
			c3.527-2.409,7.764-4.333,11.643-6.132c5.227-2.453,10.768-4.663,16.562-5.189c2.759-0.329,5.582-0.261,8.27,0.486
			c2.022-1.994,4.905-3.249,6.958-5.176c1.247-1.155,2.002-2.642,2.904-4.034c-2.524,0.293-4.006-5.514-4.246-7.425
			c-0.129-1.085-0.098-2.463,0.7-3.212c0.096-0.57-0.367-1.48-0.423-2.116c-1.11-5.933-0.866-15.178,4.402-19.089
			c-4.739-3.393-2.646-6.547-2.705-11.329c-0.077-2.676-1.502-5.397,1.45-7.023c3.193-1.872,9.813-3.032,12.4,0.211
			c1.585,2.103,1.979,4.778,3.455,6.916c2.055,3.151,4.088,4.53,3.172,8.651c3.53,1.396,6.397,4.159,8.282,7.411
			c1.401,1.827,2.136,3.852,2.707,6.031c0.723,3.294,1.992,8.278,2.257,11.619c0.258,3.588,0.065,7.267-0.93,10.737
			c5.56,2.702,7.263,6.443,9.885,11.645c0.336,0.735,1.015,1.625,1.169,2.395c0.025,0.234-0.013,0.543-0.09,0.676
			c0.302,0.301,0.998,0.264,1.396,0.42c3.302,0.829,6.543,2.154,9.266,4.226c2.383,1.748,3.991,4.307,4.627,7.149
			c1.117,5.517,1.477,11.697,2.757,17.192c1.773,9.196,5.529,23.041,5.839,32.313c-0.003,2.301-0.523,4.806-1.889,6.654
			c-2.258,3.111-6.093,5.016-9.931,4.943c0.892,6.211-0.695,7.579-3.383,12.685c-2.928,5.586-3.812,12.987-5.387,19.047
			c-0.198,0.74-0.459,1.656-0.764,2.33c-0.18,0.37-0.454,0.93-0.831,0.932c-0.216-0.043-0.385-0.128-0.452-0.218
			c-0.157,2.017-0.232,6.835-0.387,8.769c-0.429,7.209-0.983,14.618-2.476,21.691c-0.683,3.294-1.947,6.569-2.808,9.82
			c-2.56,8.433-3.196,17.313-4.986,25.902c-1.419,5.797-4.105,16.929-10.182,19.186c-3.111,1.004-6.413,1.32-9.667,1.376
			c-3.458,0.169-7.561-0.748-9.159-4.12c-1.49-3.162-1.582-6.774-1.67-10.21c0.102-11.298,1.704-23.934,2.877-35.203
			c-3.238,4.918-6.121,10.173-8.25,15.669c-1.584,3.561-2.184,9.819-6.575,10.913c0.177,3.011,0.189,6.255,1.249,9.102
			c1.373,2.758,1.541,9.329-0.215,11.865c-1.448,1.89-3.946,1.919-6.073,1.989c-2.595-0.105-10.258,0.221-12.715-0.231
			c-1.144-0.168-2.338-0.575-2.55-1.751c-0.452-1.588-0.522-3.219-0.624-4.85c-0.131-2.383-0.016-4.823,0.678-7.119
			c0.346-1.231,1.001-2.336,1.432-3.518c0.925-2.477,1.467-5.12,1.875-7.727c-1.876-1.981-1.227-4.858-0.738-7.213
			c0.759-3.038,1.91-6.533,2.085-9.656c0.395-5.082-0.65-10.86,0.029-15.924c0.393-3.137,2.688-6.121,0.489-9.053
			c-1.345-2.018-3.203-3.976-4.5-6.027c-1.422-2.153-2.397-4.585-3.067-7.069c-1.741-6.85-1.997-14.236-0.174-21.094
			C809.812,253.229,811.882,249.749,814.237,246.573z"/>
	</g>
	<g id="POLYLINE_71_">
		
			<path fill="none" stroke="#FF6B6B" stroke-width="3.5" stroke-linecap="round" stroke-linejoin="round" stroke-miterlimit="10" d="
			M626.823,279.873c-2.227,4.669-4.29,9.787-6.117,14.63c-1.053,2.898-2.05,5.905-2.436,8.975c-0.654,4.517,0.534,9.799,1.054,14.29
			c0.643,5.153,0.59,10.539-1.196,15.47c-2.282,6.316-5.788,5.158-10.157,1.481c-3.036-2.701-7.376-7.075-7.214-11.408
			c0.043-1.608,0.486-3.205,0.921-4.745c3.01-9.62,7.447-20.554,9.09-30.489c1.36-6.83,1.72-14.597,4.056-21.186
			c2.039-5.083,5.408-10.224,7.315-15.368c4.458-10.897,9.603-27.497,14.859-37.961c2.225-4.415,4.927-8.693,8.545-12.102
			c2.467-2.237,5.274-4.525,8.56-5.323c1.204-1.247,2.362-2.59,3.947-3.271c1.799-0.892,3.742-1.531,5.673-2.067
			c1.188-0.293,2.546-0.711,3.749-0.628c0.106,0.016,0.14,0.022,0.14,0.022c0.101,0.022,0.117,0.026,0.117,0.026
			c0.096,0.028,0.112,0.033,0.112,0.033c0.107,0.04,0.121,0.047,0.121,0.047c0.101,0.049,0.115,0.056,0.115,0.056
			c0.108,0.066,0.121,0.075,0.121,0.075c0.57-0.057,0.993-0.286,1.508-0.474c1.113-0.476,2.328-1.075,3.111-1.972
			c-0.721-1.948-1.218-4.115-1.108-6.192c0.084-1.29,0.613-2.357,1.176-3.462c-0.625-4.793,0.839-9.576,2.508-14.019
			c0.548-1.422,1.219-2.993,1.853-4.38c0.174-0.272,0.497-1.024,0.457-1.326c0.287-4.589,2.355-9.254,5.902-12.233
			c1.73-1.348,3.757-1.769,5.845-1.97c3.369-0.221,6.986-0.236,10.214,0.838c1.866,0.786,2.034,2.96,2.38,4.639
			c0.358,2.502,0.392,5.087-0.115,7.571c-0.053,0.292-0.179,0.729-0.254,0.992c-0.001,0.262,0.361,0.316,0.465,0.451
			c0.356,0.259,0.637,0.511,0.896,0.755c2.132,2.032,3.012,4.933,3.228,7.793c1.821-9.437,4.128-28.61,7.157-37.511
			c1.71-4.967,3.926-10.603,4.964-15.745c0.946-4.221,2.074-11.723,3.025-15.944c0.414-1.826,1.003-4.155,1.209-6.018
			c0.335-2.799-0.254-5.654-1.422-8.202c-0.915-2.119-2.642-4.26-2.874-6.59c-0.081-3.124,2.602-5.197,4.769-6.968
			c1.91-1.358,5.083-3.606,7.232-1.749c1.346,1.288,1.857,3.01,2.507,4.673c1.18,3.222,1.336,6.729,0.731,10.089
			c-0.315,1.876-0.793,3.741-1.441,5.529c-0.86,2.282-2.054,4.745-2.425,7.162c-1.391,10.282-1.485,24.305-2.8,34.564
			c-0.498,4.202-0.965,8.653-2.044,12.745c-0.614,2.069-1.303,4.413-1.327,6.579c0.127,10.985-0.687,22.196-4.064,32.712
			c-1.275,4.25-3.667,8.404-5.126,12.583c-1.585,5.348-2.22,11.004-2.537,16.559c0.007,1.869-0.344,3.886,0.459,5.631
			c0.414,1.233,0.86,2.541,0.992,3.836c0.189,2.436-0.24,4.894-0.672,7.284c-2.909,13.142-7.032,26.391-12.058,38.878
			c-1.076,3.094-4.328,3.645-7.224,3.366c3.905,10.18,9.044,24.041,13.337,33.946c0.563,1.374,1.441,2.795,2.274,3.984
			c4.543,6.867,10.816,13.927,12.642,22.153c0.941,3.766,1.058,7.758,0.124,11.538c-1.023,4.027-2.899,7.942-5.745,11
			c-4.893,5.251-12.939,5.557-18.279,0.785c-1.882,2.279-4.691,3.696-7.631,3.928c-1.985,0.041-11.779,0.257-13.732-0.114
			c-1.989-0.496-3.25-2.29-3.922-4.038c-0.886-2.181-1.042-4.564-1.416-6.865c-0.542-3.175-1.399-6.357-2.939-9.203
			c-0.633-1.214-1.511-2.322-2.322-3.421c-1.294-1.812-2.515-3.735-3.299-5.828c-0.824-1.827-0.375-3.32,0.819-4.751
			c1.453-1.757,3.369-3.082,5.273-4.305c-3.923-3.076-8.401-6.523-12.535-9.273c-0.767-0.534-1.517-1.15-2.211-1.776
			c-3.221-2.948-5.857-6.536-8.28-10.151c-2.937,6.465-4.358,13.521-4.517,20.605c4.435,1.13,4.929,4.985,5.148,8.863
			c0.183,1.673,0.564,3.338,1.104,4.931c1.062,3.038,2.637,5.911,4.36,8.621c0.918,1.42,2.214,2.822,2.838,4.35
			c0.928,2.096,1.372,4.411,1.392,6.698c0.01,2.612-0.922,4.614-3.567,5.136c-4.044,1.096-14.017,0.382-18.271,0.581
			c-1.873,0.047-3.701-0.818-4.803-2.231c-1.214-1.489-1.753-3.254-2.223-5.066c-0.507-1.827-1.106-3.72-1.81-5.481
			c-0.598-1.653-1.602-3.219-2.381-4.758c-0.613-1.333-1.014-2.77-1.28-4.21c-1.031-5.108-0.147-10.438,2.129-15.096
			c0.807-1.532,2.375-5.571,4.41-5.163C630.011,304.873,627.127,291.356,626.823,279.873z"/>
	</g>
	<g id="POLYLINE_72_">
		
			<path fill="none" stroke="#FF6B6B" stroke-width="3.5" stroke-linecap="round" stroke-linejoin="round" stroke-miterlimit="10" d="
			M456.136,171.206c-4.497-7.369-4.155-17.259-3.747-25.614c0.435-5.147,0.57-10.676,2.058-15.64
			c2.891-7.774,8.4-15.823,11.064-23.683c0.525-1.581,0.977-3.229,1.004-4.905c0.042-2.085-0.721-4.386-0.861-6.443
			c-0.158-2.646-0.015-5.513,1.197-7.911c0.9-1.748,2.748-2.256,4.489-2.473c2.07-0.271,4.232-0.378,6.32-0.359
			c1.976,0.068,4.15,0.076,5.965,0.919c1.236,0.605,1.518,1.946,1.569,3.11c0.096,3.688-1.176,7.368-3.342,10.335
			c-1.317,1.852-3.199,3.959-4.447,5.857c-1.215,1.814-2.239,3.774-3.049,5.801c-3.359,8.859-3.566,18.948-6.149,28.029
			c-1.724,6.614-2.834,5.658,1.066,11.917c1.043,0.206,2.642,0.524,3.667,0.76c2.669-9.394,8.88-1.103,10.651-10.464
			c-1.013-1.389-1.706-2.903-2.331-4.486c-0.352-0.999-0.857-2.214-0.715-3.253c0.129-0.664,0.704-1.088,1.189-1.285
			c0.579-0.155,0.591-0.058,0.44-0.599c-1.14-3.71-1.058-7.692,0.028-11.405c1.003-3.495,2.602-7.444,6.048-9.108
			c1.19-0.625,2.635-1.176,3.682-2.005c1.609-1.33,3.462-2.957,5.644-2.84c3.586,0.064,7.007,1.621,9.875,3.691
			c4.764,3.475,6.501,9.663,6.487,15.329c-0.01,1.155-0.104,2.343-0.294,3.482c0.113,1.497,0.136,3.056,0.097,4.558
			c-0.237,4.974-0.807,10.118-2.043,14.947c-0.204,0.686-0.542,1.46-0.884,2.058c-0.199,0.471-0.61,0.729-0.684,1.108
			c-0.003,0.203,0.003,0.436,0.013,0.64c0.062,1.125,0.271,2.252,0.667,3.308c4.43,1.215,14.627,4.392,18.983,5.857
			c1.182,0.438,2.367,0.94,3.46,1.57c2.981,1.664,4.889,4.444,6.357,7.398c4.593,9.474,7.055,19.973,7.604,30.471
			c0.072,0.875,0.173,1.989-0.24,2.749c-0.158,0.335-0.386,0.573-0.546,0.753c-0.116,0.956,0.184,2.064,0.218,3.012
			c0.266,2.542,0.846,13.524,1.018,16.219c0.104,2.163,0.015,4.384-0.685,6.451c-1.915,5.446-6.203,9.92-9.786,14.334
			c2.319,5.911,3.137,12.377,4.052,18.629c2.395,19.36-1.424,39.012-5.388,57.914c-0.774,3.889-1.147,9.215-2.741,12.858
			c1.598,3.219,3.295,6.703,5.174,9.761c0.792,1.176,1.767,2.362,2.075,3.71c0.725,2.61,1.4,8.461-0.457,10.559
			c-1.779,1.531-4.936,1.385-7.152,1.47c0,0-9.913,0-9.913,0c-0.248,0.009-0.448-0.022-0.631-0.036
			c-0.787-0.078-1.579-0.425-2.117-0.869c-1.122-0.94-1.597-2.165-1.951-3.478c-0.649-3.293-1.138-8.08-1.514-11.398
			c-0.292-3.329,0.657-6.633,1.79-9.73c-1.287-0.544-1.351-1.516-1.005-2.635c0.271-0.97,0.548-2.04,0.657-3.037
			c0.579-5.567-0.074-11.259-1.463-16.665c-1.322-5.059-4.208-10.899-5.94-15.831c-0.73,10.173-1.762,20.712-0.315,30.85
			c1.567,7.649,2.743,15.58,1.474,23.361c-0.385,2.08-0.713,4.354-1.744,6.212c-0.977,1.758-2.765,2.823-4.64,3.113
			c-1.954,0.241-12.239,0.222-14.267,0.043c-3.607-0.859-5.095-4.645-6.175-7.768c-1.847-6.511-2.971-13.42-3.73-20.138
			c-0.276-3.222-0.429-6.521-1.249-9.664c-0.714-2.985-1.745-5.927-2.95-8.747c-0.998-2.343-2.234-4.644-3.078-7.052
			c-6.342-18.332-4.041-41.333-2.114-60.422c-2.502-1.285-3.127-3.767-3.17-6.313c-0.263-8.911,1.376-20.322,0.696-29.212
			c-0.292-5.187-1.595-10.388-4.643-14.666c-1.738-2.606-4.143-5.569-5.509-8.389C457.061,181.292,456.475,176.173,456.136,171.206z
			"/>
	</g>
</g>
</svg>
